<?xml version="1.0" standalone="no"?>
<!DOCTYPE svg PUBLIC "-//W3C//DTD SVG 20010904//EN"
 "http://www.w3.org/TR/2001/REC-SVG-20010904/DTD/svg10.dtd">
<svg version="1.0" xmlns="http://www.w3.org/2000/svg"
 width="260.000000pt" height="260.000000pt" viewBox="0 0 260.000000 260.000000"
 preserveAspectRatio="xMidYMid meet">
<metadata>
Created by potrace 1.11, written by Peter Selinger 2001-2013
</metadata>
<g transform="translate(0.000000,260.000000) scale(0.100000,-0.100000)"
fill="#000000" stroke="none">
<path d="M162 2444 c2 -12 35 -26 106 -48 l102 -30 0 -1037 0 -1036 -102 -39
c-70 -27 -104 -45 -106 -57 -3 -16 14 -17 243 -17 229 0 246 1 243 17 -2 12
-36 30 -106 57 l-102 39 1 936 c0 601 4 929 10 916 5 -11 180 -468 388 -1015
355 -933 381 -995 404 -998 21 -3 27 3 40 40 8 24 155 455 327 958 172 503
323 944 336 980 l23 65 0 -956 1 -957 -97 -24 c-72 -18 -99 -29 -101 -41 -3
-16 22 -17 333 -17 310 0 336 1 333 17 -2 11 -22 21 -58 30 -30 8 -72 19 -92
24 l-38 10 0 1059 0 1059 38 10 c20 5 62 16 92 24 36 9 56 19 58 30 3 16 -16
17 -225 17 l-228 0 -314 -922 c-173 -508 -317 -927 -321 -931 -4 -4 -166 411
-361 922 l-354 931 -238 0 c-216 0 -238 -2 -235 -16z"/>
</g>
</svg>
